<?xml version="1.0" encoding="UTF-8"?>
<svg xmlns="http://www.w3.org/2000/svg" version="1.1" viewBox="0 0 814 327.2">
  <!-- Generator: Adobe Illustrator 28.7.1, SVG Export Plug-In . SVG Version: 1.2.0 Build 142)  -->
  <g>
    <g id="Réteg_1">
      <g>
        <path d="M174,167.8c-1.5,0-2.1,2-2.6,3.3-4.6,12-9.2,23.9-13.7,35.9-8.3,21.7-16.6,43.3-24.9,65-4.8,12.4-9.5,24.8-14.2,37.3-.6,1.7-1.4,3.4-2,5.1-1,2.7-3,4.7-5.8,4.8-1,0-1.9,0-2.9,0-29.1,0-58.3,0-87.4,0-1.6,0-3.2,0-4.7-.3-1.8-.3-2.5-2-2.1-3.8.4-1.5.9-3,1.5-4.4,8.6-19.2,17.2-38.4,25.8-57.6,8.7-19.5,17.4-39.1,26.1-58.6,7.7-17.2,15.5-34.4,23.2-51.6,8.7-19.5,17.4-39.1,26.1-58.6,6.7-15,13.5-30,20.2-45,3.6-8,7.3-16.1,10.7-24.2,1.6-3.8,4.1-5.6,8.3-5.5,13.3.1,26.6.1,39.9,0,4,0,6.5,1.6,8.1,5.3,9.7,22.3,19.6,44.5,29.4,66.7,9.4,21.2,18.8,42.4,28.2,63.6,9,20.2,18,40.4,27,60.6,7.9,17.9,15.8,35.8,23.7,53.7,7,15.8,14,31.6,21,47.4.9,2.1,1.9,4.2,2.8,6.3,1.8,4.1.7,5.8-3.9,6-.8,0-1.7,0-2.5,0-28.5,0-57.1,0-85.6,0-7.7,0-8.2-.3-11-7.3-12.9-32.5-25.8-64.9-38.7-97.4-5.6-14-11.1-28.1-16.7-42.1-.7-1.7-1.5-4.4-3.2-4.5Z"/>
        <path d="M453.6,164.1c0,48.4,0,96.8,0,145.2,0,1.8,0,3.6-.3,5.4-.2,2.1-1.5,4-3.5,4.3-1.3.2-2.6.3-4,.3-29,0-58.1,0-87.1,0-1.3,0-2.7,0-4-.3-2.4-.4-3.3-2.1-3.7-4.5-.2-1.3-.2-2.6-.2-4,0-97.6,0-195.2,0-292.8,0-1.4,0-2.9.3-4.3.4-2.3,1.2-3.1,3.5-3.5,1.1-.2,2.2-.2,3.2-.2,29.5,0,59,0,88.5,0,6.2,0,7.2,1,7.2,7.2,0,49.1,0,98.2,0,147.3Z"/>
        <path d="M637,0c-90.4,0-163.6,73.3-163.6,163.6s73.3,163.6,163.6,163.6,163.6-73.3,163.6-163.6S727.4,0,637,0ZM637,232.3c-38,0-68.7-30.8-68.7-68.7s30.8-68.7,68.7-68.7,68.7,30.8,68.7,68.7-30.8,68.7-68.7,68.7Z"/>
      </g>
    </g>
  </g>
</svg>