<svg xmlns="http://www.w3.org/2000/svg" width="269" height="50"><g fill="none" fill-rule="evenodd"><g fill="#FFFFFE"><path d="M62.483 28.616c0-.253.248-.535.422-.76l5.216-6.715h-4.953a.538.538 0 0 1-.54-.521v-.577c0-.282.248-.521.54-.521h6.817c.292 0 .54.24.54.521v.253c0 .253-.248.55-.423.76l-5.23 6.701h5.405c.291 0 .538.24.538.521v.577c0 .282-.247.521-.538.521h-7.255a.538.538 0 0 1-.539-.52v-.24M78.857 28.855c0 .282-.247.521-.538.521H73.35a.538.538 0 0 1-.539-.52v-8.813c0-.282.248-.521.54-.521h4.82c.292 0 .54.24.54.521v.577c0 .281-.248.52-.54.52h-3.568v2.45h3.132c.291 0 .539.24.539.521v.577c0 .282-.248.521-.539.521h-3.132v2.548h3.715c.29 0 .538.24.538.521v.577M84.147 24.07c1.033 0 1.952-.508 1.952-1.521 0-.775-.438-1.436-1.894-1.436-.335 0-.743.014-1.224.028v2.928h1.166Zm.087 1.618h-1.253v3.167c0 .282-.248.521-.539.521h-.713a.538.538 0 0 1-.54-.52v-8.813a.53.53 0 0 1 .54-.521c.873-.014 2.33-.028 2.563-.028 2.782 0 3.7 1.337 3.7 3.04 0 1.69-1.122 2.534-1.966 2.816l2.534 3.21a.458.458 0 0 1 .117.31.513.513 0 0 1-.525.506h-.67a.914.914 0 0 1-.699-.352l-2.549-3.336ZM112.941 28.827c0 .281-.247.52-.538.52h-4.968a.538.538 0 0 1-.539-.52v-8.813c0-.282.248-.521.54-.521h4.82c.292 0 .54.24.54.521v.577c0 .282-.248.521-.54.521h-3.568v2.45h3.132c.291 0 .539.239.539.52v.578c0 .281-.248.52-.539.52h-3.132v2.548h3.715c.29 0 .538.24.538.521v.578M117.065 28.827c0 .281-.248.52-.539.52h-.713a.538.538 0 0 1-.54-.52v-8.813c0-.282.248-.521.54-.521h.83c.262 0 .539.14.699.352l3.219 4.252 3.074-4.252a.864.864 0 0 1 .684-.352h.714c.292 0 .539.24.539.521v8.813c0 .281-.247.52-.539.52h-.699a.538.538 0 0 1-.539-.52v-6.603l-2.666 3.618c-.189.253-.437.38-.685.38-.247 0-.51-.127-.699-.38l-2.68-3.576v6.56M130.41 28.827c0 .281-.248.52-.539.52h-.714a.538.538 0 0 1-.539-.52v-8.813c0-.282.248-.521.54-.521h.713c.291 0 .54.24.54.521v8.813M133.31 27.095a.495.495 0 0 1 .364-.155c.145 0 .29.056.407.155.656.52 1.282.788 1.85.788.845 0 1.486-.408 1.486-1.154 0-1.943-4.618-1.464-4.618-4.674 0-1.478 1.195-2.717 3.176-2.717.932 0 1.66.183 2.433.606.16.084.262.267.262.45 0 .085-.03.17-.073.24l-.277.464a.568.568 0 0 1-.48.281.59.59 0 0 1-.263-.056c-.539-.254-1.02-.366-1.456-.366-.889 0-1.428.436-1.428 1.084 0 2.041 4.618 1.394 4.618 4.674 0 1.661-1.5 2.787-3.409 2.787-1.107 0-2.01-.295-3.015-1.196a.548.548 0 0 1-.19-.408.43.43 0 0 1 .132-.31l.48-.493M141.235 27.095a.496.496 0 0 1 .363-.155c.146 0 .292.056.409.155.655.52 1.281.788 1.85.788.844 0 1.485-.408 1.485-1.154 0-1.943-4.617-1.464-4.617-4.674 0-1.478 1.194-2.717 3.175-2.717.933 0 1.661.183 2.433.606.16.084.262.267.262.45 0 .085-.03.17-.073.24l-.276.464a.567.567 0 0 1-.481.281.588.588 0 0 1-.262-.056c-.54-.254-1.02-.366-1.457-.366-.889 0-1.428.436-1.428 1.084 0 2.041 4.618 1.394 4.618 4.674 0 1.661-1.5 2.787-3.409 2.787-1.107 0-2.01-.295-3.015-1.196a.548.548 0 0 1-.19-.408.43.43 0 0 1 .132-.31l.48-.493M151.316 28.827c0 .281-.248.52-.539.52h-.714a.538.538 0 0 1-.539-.52v-8.813c0-.282.248-.521.54-.521h.713c.291 0 .54.24.54.521v8.813M158.906 27.883c2.141 0 3.423-1.52 3.423-3.463 0-2.041-1.5-3.463-3.423-3.463-1.952 0-3.41 1.422-3.41 3.463 0 1.971 1.502 3.463 3.41 3.463Zm0-8.545c3.03 0 5.317 2.013 5.317 5.082 0 2.956-2.287 5.082-5.317 5.082-3.03 0-5.303-2.013-5.303-5.082 0-2.858 2.17-5.082 5.303-5.082ZM174.465 19.493c.291 0 .539.24.539.521v8.813c0 .281-.248.52-.54.52h-.509c-.262 0-.48-.126-.656-.338l-5.331-6.49v6.308c0 .281-.248.52-.54.52h-.596a.538.538 0 0 1-.54-.52v-8.813c0-.282.248-.521.54-.521h.51c.261 0 .48.127.655.338l5.332 6.518v-6.335c0-.282.247-.521.538-.521h.598M188.33 28.798c0 .28-.247.52-.539.52h-5.302a.539.539 0 0 1-.54-.52v-8.813c0-.281.248-.52.54-.52h.714c.29 0 .539.239.539.52V27.7h4.05c.29 0 .538.239.538.52v.578M195.964 28.798c0 .28-.247.52-.539.52h-4.967a.539.539 0 0 1-.54-.52v-8.813c0-.281.249-.52.54-.52h4.822c.29 0 .539.239.539.52v.577a.538.538 0 0 1-.54.521h-3.568v2.45h3.131c.292 0 .54.239.54.52v.578c0 .281-.248.52-.54.52h-3.131V27.7h3.714c.292 0 .54.239.54.52v.578M200.481 25.18h2.986l-1.486-3.506-1.5 3.506Zm-.684 1.618-.904 2.127a.633.633 0 0 1-.597.394h-.524a.55.55 0 0 1-.568-.55c0-.056.014-.126.043-.196l3.817-8.743a.667.667 0 0 1 .612-.394h.699c.262 0 .51.155.612.394l3.816 8.743c.03.07.044.14.044.196a.55.55 0 0 1-.568.55h-.627a.633.633 0 0 1-.597-.394l-.903-2.127h-4.355ZM210.374 27.7c.495.028.902.028 1.15.028 2.462 0 3.89-1.352 3.89-3.435 0-1.985-1.428-3.252-3.86-3.252-.423 0-.773.014-1.18.042V27.7Zm1.208-8.278c4.08 0 5.725 2.266 5.725 4.871 0 2.773-1.952 5.054-5.841 5.054-.51 0-1.399-.014-2.345-.028a.539.539 0 0 1-.54-.521v-8.813c0-.281.234-.52.54-.52.8-.015 1.864-.043 2.461-.043ZM225.422 28.798c0 .28-.247.52-.539.52h-4.967a.538.538 0 0 1-.538-.52v-8.813c0-.281.247-.52.538-.52h4.822c.291 0 .539.239.539.52v.577a.538.538 0 0 1-.54.521h-3.568v2.45h3.132c.291 0 .539.239.539.52v.578c0 .281-.248.52-.539.52h-3.132V27.7h3.714c.292 0 .54.239.54.52v.578M230.712 24.011c1.034 0 1.952-.506 1.952-1.52 0-.774-.437-1.436-1.894-1.436-.335 0-.743.014-1.224.028v2.928h1.166Zm.087 1.619h-1.253v3.168c0 .28-.248.52-.539.52h-.713a.538.538 0 0 1-.54-.52v-8.813c0-.281.233-.52.54-.52.873-.015 2.33-.029 2.563-.029 2.782 0 3.7 1.337 3.7 3.04 0 1.69-1.121 2.535-1.966 2.816l2.535 3.21a.461.461 0 0 1 .116.31.514.514 0 0 1-.525.507h-.67a.914.914 0 0 1-.699-.352L230.8 25.63ZM237.078 27.066a.496.496 0 0 1 .364-.155c.146 0 .292.057.409.155.655.521 1.281.788 1.85.788.844 0 1.485-.408 1.485-1.154 0-1.942-4.617-1.464-4.617-4.674 0-1.478 1.194-2.717 3.175-2.717.932 0 1.66.183 2.433.606.16.084.262.267.262.45a.46.46 0 0 1-.073.24l-.277.464a.567.567 0 0 1-.48.282.588.588 0 0 1-.262-.056c-.54-.254-1.02-.367-1.457-.367-.889 0-1.428.437-1.428 1.084 0 2.041 4.618 1.394 4.618 4.674 0 1.661-1.5 2.787-3.409 2.787-1.107 0-2.01-.295-3.015-1.196a.547.547 0 0 1-.19-.409.43.43 0 0 1 .132-.31l.48-.492M253.38 28.798c0 .28-.248.52-.54.52h-.699a.539.539 0 0 1-.538-.52V25.11h-4.662v3.688c0 .28-.247.52-.539.52h-.714a.539.539 0 0 1-.539-.52v-8.813c0-.281.248-.52.54-.52h.713c.292 0 .54.239.54.52v3.506h4.66v-3.506c0-.281.248-.52.54-.52h.699c.291 0 .538.239.538.52v8.813M258.218 28.798c0 .28-.249.52-.54.52h-.713a.539.539 0 0 1-.54-.52v-8.813c0-.281.248-.52.54-.52h.714c.29 0 .539.239.539.52v8.813M263.054 24.11c.423.042.86.07 1.267.07 1.064 0 1.894-.493 1.894-1.59 0-1.028-.656-1.535-1.879-1.535-.364 0-.801.014-1.282.028v3.027Zm5.055-1.506c0 1.675-1.297 3.195-3.729 3.195-.306 0-.89 0-1.326-.042v3.04c0 .282-.247.522-.539.522h-.714a.539.539 0 0 1-.538-.521v-8.813c0-.281.232-.52.538-.52.729-.015 1.806-.029 2.36-.029 3.001 0 3.948 1.549 3.948 3.168ZM94.781 27.912c2.142 0 3.424-1.52 3.424-3.463 0-2.04-1.5-3.463-3.424-3.463-1.952 0-3.408 1.422-3.408 3.463 0 1.971 1.5 3.463 3.408 3.463Zm0-8.545c3.03 0 5.318 2.013 5.318 5.082 0 2.956-2.288 5.082-5.318 5.082s-5.302-2.013-5.302-5.082c0-2.858 2.17-5.082 5.302-5.082Z"/></g><path fill="#FFFFFE" d="M35.5.103C43.914 5.57 49.446 15.132 49.99 25.15a.65.65 0 0 1-.65.68l-1.182.002a.647.647 0 0 1-.645-.61 30.426 30.426 0 0 0-.533-4.009C45.471 13.53 40.756 6.48 34.232 2.167a.648.648 0 0 1-.21-.865l.563-.975A.65.65 0 0 1 35.5.103"/><path fill="#FFFFFE" d="M33.11 4.26c16.064 10.865 16.152 34.867-.048 45.634a.648.648 0 0 1-.917-.22l-.58-1.007a.645.645 0 0 1 .208-.86 24.922 24.922 0 0 0 6.713-6.634c5.598-7.985 5.71-19.232.472-27.44A24.93 24.93 0 0 0 31.83 6.31a.647.647 0 0 1-.203-.86l.56-.972a.65.65 0 0 1 .922-.218"/><path fill="#FFFFFE" d="M29.792 8.626a.65.65 0 0 1 .93-.214C44.201 17.799 43.602 38.49 29.08 46.7c-6.452 3.672-14.297 3.981-20.896.92a.648.648 0 0 1-.282-.91l.557-.972a.651.651 0 0 1 .844-.26c9.277 4.32 20.996.678 26.05-8.282 4.367-7.356 3.265-17.36-2.49-23.676a20.059 20.059 0 0 0-3.436-3.068.65.65 0 0 1-.194-.857l.56-.97"/><path fill="#FFFFFE" d="M27.4 12.77a.654.654 0 0 1 .952-.196c7.23 5.22 9.534 15.723 4.96 23.443-4.638 8.374-16.25 11.464-24.423 6.594C3.929 39.781.622 34.7-.023 29.083a.646.646 0 0 1 .642-.711l1.154-.01a.653.653 0 0 1 .65.58c1.297 10.342 12.18 16.547 21.785 12.187 7.307-3.159 10.93-11.938 8.117-19.355a15.606 15.606 0 0 0-5.309-7.174.651.651 0 0 1-.183-.85l.566-.98"/><path fill="#FFFFFE" d="m10.597 16.929.565.982a.656.656 0 0 1-.166.836c-2.484 2.024-3.99 5.186-3.94 8.396C7.033 33.21 12.49 38.27 18.54 37.748 28.312 37 31.98 24.87 24.582 18.758a.654.654 0 0 1-.16-.832l.564-.978c.2-.345.66-.43.972-.181a13.08 13.08 0 0 1 3.668 4.651c3.26 6.707.1 15.027-6.86 17.773-8.55 3.542-18.038-2.755-18.105-12.035-.076-4.015 1.826-7.94 4.962-10.41a.654.654 0 0 1 .974.183"/><path fill="#EFA92C" d="M14.82 21.898c3.89-2.288 8.954.627 8.919 5.148.07 4.526-5.04 7.458-8.93 5.167-3.934-2.234-3.95-8.095.01-10.315Zm2.97-3.207c-4.514-.097-8.504 3.901-8.376 8.43.19 8.522 11.259 11.442 15.624 4.12 3.234-5.485-.891-12.62-7.248-12.55Z"/><path fill="#FFFFFE" d="M21.38 27.052c.076 2.696-3.078 4.51-5.379 3.125-2.388-1.286-2.384-4.946-.007-6.234 2.315-1.394 5.435.4 5.386 3.11"/></g></svg>
